<?xml version="1.0" encoding="UTF-8"?><svg id="illust" xmlns="http://www.w3.org/2000/svg" viewBox="0 0 304.08 725.26"><defs><style>.cls-1{fill:lime;}.cls-2{fill:#ffc7af;}.cls-3{fill:#fedeb5;}.cls-4{fill:#600;}.cls-5{fill:#9efe9d;}.cls-6{fill:#9e98ff;}.cls-7{fill:#cdfffe;}.cls-8{fill:#cdcdff;}.cls-9{fill:#d9b7ac;}.cls-10{fill:#7a4303;}.cls-11{stroke:#9d6928;}.cls-11,.cls-12{fill:none;stroke-linecap:round;stroke-linejoin:round;stroke-width:7px;}.cls-12{stroke:#000;}</style></defs><g id="mattn"><g><g><path class="cls-2" d="m300.55,221.73c.18,8.46-.56,17-2.28,25.49-1.83,6.97-3.8,14.27-5.12,19.13-.27,1-.51,1.89-.73,2.65-.2.73-.39,1.44-.58,2.14-.09.34-.16.6-.2.74,0,.05-.03.1-.04.15l-.93.09c-1.85-4.03-5.03-7.07-9.76-7.46,4.87-17.27,8.8-39.68,6.52-55.5-1.78-12.33-10.95-38.65,2.25-34.39l.3-.13c.04.09.08.17.11.25.1.23.2.46.29.68.2.45.39.9.58,1.36l.3.72c.06.14.12.29.18.44.26.62.5,1.25.75,1.88.04.1.07.2.11.29.02.06.04.11.06.17.32.82.63,1.64.92,2.47.28.76.54,1.53.8,2.29.09.27.18.53.26.79.15.43.29.87.43,1.31.04.11.07.22.11.34.15.47.3.95.44,1.42.1.32.19.64.28.96.12.4.24.79.35,1.18.03.11.06.21.09.32.33,1.18.64,2.36.93,3.55.07.24.12.47.18.71.01.05.03.1.04.15.12.49.23.97.34,1.46.06.26.12.52.17.77.15.64.28,1.28.41,1.92.13.58.24,1.17.35,1.75,0,.02,0,.05,0,.08.16.83.31,1.66.45,2.49.01.07.02.13.03.19.15.87.28,1.74.41,2.62.01.05.01.1.02.15.07.46.13.93.19,1.4.02.13.04.27.05.4.07.48.12.96.18,1.44.08.69.15,1.38.21,2.08.02.08.03.17.03.25.08.8.15,1.6.21,2.4.01.13.02.26.03.4.04.6.08,1.2.11,1.8,0,.02.01.05,0,.07.04.55.06,1.1.09,1.65.02.44.03.88.04,1.31.02.39.03.78.03,1.18Z"/><path class="cls-2" d="m300.55,221.73c0-.4-.01-.79-.03-1.18.02.4.03.79.03,1.18Z"/><path class="cls-2" d="m300.48,219.24c-.03-.55-.05-1.1-.09-1.65.04.55.06,1.1.09,1.65Z"/><path class="cls-2" d="m299.8,210.59c-.06-.48-.11-.96-.18-1.44.07.48.12.96.18,1.44Z"/><path class="cls-2" d="m298.11,200.07c-.13-.64-.26-1.28-.41-1.92.15.64.28,1.28.41,1.92Z"/><path class="cls-2" d="m297.53,197.38c-.11-.49-.22-.97-.34-1.46.12.48.23.97.34,1.46Z"/><path class="cls-2" d="m298.27,247.22c-1.42,5.89-3.34,12.7-5.12,19.13,1.32-4.86,3.29-12.16,5.12-19.13Z"/><path class="cls-2" d="m295.32,189.05c-.14-.47-.29-.95-.44-1.42.15.47.29.94.44,1.42Z"/><path class="cls-2" d="m290.67,272.12c2.27,4.93,2.54,11.36,1.17,16.22-1.24,4.42-6.85,15.67-16.04,18.47-3.29.99-7.03.91-11.19-.95l-2.42-1.14c5.63-7.86,9.07-14.79,11.31-19.33,2.26-4.58,4.96-11.99,7.41-20.73,4.73.39,7.91,3.43,9.76,7.46Z"/><path class="cls-3" d="m280.91,264.66c-2.45,8.74-5.15,16.15-7.41,20.73-2.24,4.54-5.68,11.47-11.31,19.33-16.89,23.57-53.47,55.45-136.3,56l-.17.67c-69.58-18.01-89.63-50.29-95.45-71.85-.05-.19-.1-.37-.15-.56-6.31-24.01-2.81-51.98,8.81-73.9,10.02-18.9,24.18-37.03,38.97-53.11,1.7-1.84,3.4-3.66,5.11-5.45.8-.84,3.28-5.36,3.76-6.74.47-1.34.96-2.64,1.48-3.92.02-.04.03-.08.05-.12,0-.01,0-.03.02-.04,16.16-39.42,56.81-49.37,81.83-50.25,36.65-1.29,70.35,14.99,95.14,41.78,1.27,1.38,2.52,2.78,3.74,4.21,4.29,5.01,8.19,10.29,11.68,15.8.06.1.13.21.2.31.33.53.65,1.06.98,1.59.17.28.34.56.5.83.22.36.43.72.64,1.08.08.14.16.27.24.41.3.51.59,1.01.87,1.52.37.65.73,1.3,1.08,1.95.14.25.27.5.41.76.28.53.57,1.07.84,1.6.02.04.04.08.06.11.25.49.5.98.74,1.47.04.07.08.14.11.22.22.43.43.86.63,1.29.29.58.56,1.16.83,1.75.06.12.11.23.17.35.33.72.66,1.44.97,2.16l-.3.13c-13.2-4.26-4.03,22.06-2.25,34.39,2.28,15.82-1.65,38.23-6.52,55.5Z"/><path class="cls-2" d="m143.7,365.39c-2.34-.4-4.72-.87-7.12-1.4-3.75-.83-7.36-1.7-10.86-2.6l.17-.67c82.83-.55,119.41-32.43,136.3-56l2.42,1.14c4.16,1.86,7.9,1.94,11.19.95l.08.23c-12.74,20.34-50.24,62.43-112.5,60.4-6.3-.21-12.86-.86-19.68-2.05Z"/><path class="cls-3" d="m248.45,491.69c9.76-4.59,11.74,7.71,3.67,11.11-8.06,3.4-14.95-.88-17.07-5.73-2.12-4.85-3.52-14.85-.61-17.76s17.68-.42,14.01,12.38Z"/><path class="cls-6" d="m227.2,678.84c4.26,3.86,18.12,19.01,14.23,29.22-3.89,10.21-16.37,17.34-23.57,11.72-7.21-5.61,2.13-12.14-7.95-34.06.46-.21,1.16-.51,2.03-.86,3.6-1.44,10.11-3.88,14.62-5.76.22-.08.43-.17.64-.26Z"/><path class="cls-3" d="m226.41,678.74l.15.36c-4.51,1.88-11.02,4.32-14.62,5.76l-.6-1.04c-10.08-12.45-24.71-23.95-37.74-33.28,4.15-3.18,8.32-5.99,12.61-8.6,5.02-3.07,10.2-5.87,15.7-8.71l.43.84c14.46,11.15,19.69,26.07,24.07,44.67Z"/><path class="cls-8" d="m188.88,416.49c22.78,14.15,44.42,30.99,46.53,61.73-9.2,3.61-19.46,4.48-29.15,2.47l-.85.08c-.82-8.84-2.06-16.18-3.34-21.65-3.4-14.5-8.05-28.64-13.47-42.52l.28-.11Z"/><path class="cls-1" d="m196.37,565.22c15.66,15.39,23.77,38.15,21.36,59.98-5.61,2.85-10.84,5.46-15.82,8.03-5.5,2.84-10.68,5.64-15.7,8.71l-.19-.31c6.62-21.68,6.52-48.85-.95-70.25l-.21-.48c3.91-1.67,7.69-3.68,11.24-6.08l.27.4Z"/><path class="cls-8" d="m205.41,480.77c1.91,20.57,1.55,49.3-5.82,81.55-1.14.88-2.3,1.71-3.49,2.5-3.55,2.4-7.33,4.41-11.24,6.08-1.2.52-2.41.99-3.63,1.44l-.15-1.3c-7.42-3.18-15.99-7.93-16.41-16-.27-5.15,3.04-9.68,5.7-14.1,9.55-15.79,12.2-35.08,10.06-53.4-2.14-18.33-8.78-35.85-16.76-52.49-3.59-7.48-7.52-16.07-4.27-23.7,3.39-7.97,18.04-11.08,24.75-5.61l.04-.02c1.52,3.61,3,7.23,4.41,10.88,5.42,13.88,10.07,28.02,13.47,42.52,1.28,5.47,2.52,12.81,3.34,21.65Z"/><path class="cls-5" d="m173.6,650.54c-1.48,1.14-2.97,2.32-4.45,3.57-5.08-7.27-13.65-11.99-22.51-12.39-8.86-.41-17.82,3.51-23.55,10.29-7.57-6.46-15.73-12.21-24.35-17.17-12.58-7.26-26.14-12.83-40.19-16.52-5.85-1.54-11.8-2.75-17.79-3.61,12.17-24.25,29.89-45.7,51.41-62.22l.35-.42c4.49,3.66,8.71,7.82,13.02,11.45,15.59,13.15,48.44,18.8,75.69,8.82,1.22-.45,2.43-.92,3.63-1.44l.21.48c7.47,21.4,7.57,48.57.95,70.25l.19.31c-4.29,2.61-8.46,5.42-12.61,8.6Z"/><path class="cls-7" d="m58.44,458.99c-2.59-6.85-5.99-13.41-10.74-18.86-.75-.86-1.54-1.7-2.36-2.5,24.65-25.15,58.66-42.37,93.66-47.5l-.11-.76c0-3.23-.26-7.98-.25-11.22,1.99-.07,3.99-.15,5.98-.22,6.32-.23,12.64-.47,18.96-.71,2.55-.09,5.1-.18,7.65-.28,4.51,9.49,8.89,19.08,12.96,28.78l-.04.02c-6.71-5.47-21.36-2.36-24.75,5.61-3.25,7.63.68,16.22,4.27,23.7,7.98,16.64,14.62,34.16,16.76,52.49,2.14,18.32-.51,37.61-10.06,53.4-2.66,4.42-5.97,8.95-5.7,14.1.42,8.07,8.99,12.82,16.41,16l.15,1.3c-27.25,9.98-60.1,4.33-75.69-8.82-4.31-3.63-8.53-7.79-13.02-11.45-4.73-3.88-9.77-7.23-15.51-8.85.98-26.05,3.6-52.68,4.58-78.73l.13-.82c-7.1-1.22-14.43-1.05-21.45.62-.56-1.78-1.17-3.55-1.83-5.3Z"/><path class="cls-3" d="m163.58,377.22c-6.32.24-12.64.48-18.96.71v-.06c-.17-2.41-.7-9.47-.92-12.48,6.82,1.19,13.38,1.84,19.68,2.05v.23c0,2.16.18,7.33.2,9.55Z"/><path class="cls-3" d="m98.74,634.84l-.1.17c-16.2,14.74-30.27,29.33-44.09,47.31l-2.59.34c-3.04-2.47-6.87-4.52-9.8-7.05l.85-1.05c-.65-18.5,3.71-41.05,15.33-55.45l.21-.79c14.05,3.69,27.61,9.26,40.19,16.52Z"/><path class="cls-3" d="m47.7,440.13c4.75,5.45,8.15,12.01,10.74,18.86-8.09,6.84-18.65,15.61-26.74,22.45,4.56,2.46,6.09,8.96,3.64,13.53-2.44,4.58-8.1,6.94-13.23,6.18-7.56-1.13-13.44-8.99-12.39-16.57.85-6.08,5.31-10.93,9.56-15.36,8.85-9.23,19.54-19.84,28.42-29.09Z"/><path class="cls-6" d="m51.96,682.66c.21.16.4.33.6.5-.66,6.72-1.13,18.47-2.13,20.4-2.31,4.48-8.51,5.68-13.25,3.96-4.74-1.71-22.68-21.2-28.15-27.16-3.37-3.67-6.98-8.63-4.94-13.18,1.95-4.36,8.15-5.13,12.51-3.17,4.36,1.97,7.57,5.77,11.31,8.76s9.84,4.69,14.25,2.84c2.93,2.53,6.76,4.58,9.8,7.05Z"/></g><g><path class="cls-12" d="m284.14,162.98c-.28-.51-.57-1.01-.87-1.52"/><path class="cls-12" d="m286.47,167.29c-.27-.54-.56-1.07-.84-1.6"/><path class="cls-12" d="m288.84,172.13c-.26-.58-.54-1.17-.83-1.75-.2-.43-.41-.86-.63-1.29"/><path class="cls-12" d="m292.19,179.97c-.25-.63-.49-1.26-.75-1.88"/><path class="cls-12" d="m294.08,185.19c-.26-.76-.52-1.53-.8-2.29-.3-.83-.6-1.65-.92-2.47"/><path class="cls-12" d="m298.92,204.39c-.14-.83-.29-1.66-.45-2.49"/><path class="cls-12" d="m299.36,207.2c-.13-.88-.26-1.75-.41-2.62"/><path class="cls-12" d="m300.01,212.67c-.06-.7-.13-1.39-.21-2.08"/><path class="cls-12" d="m300.52,220.55c-.01-.44-.02-.87-.04-1.31"/><path class="cls-12" d="m292.42,269c-.24.9-.44,1.62-.58,2.14"/><path class="cls-12" d="m289.98,174.64c-.31-.72-.64-1.44-.97-2.16-.06-.12-.11-.23-.17-.35"/><path class="cls-12" d="m287.38,169.09c.22.43.43.86.63,1.29.29.58.56,1.16.83,1.75"/><path class="cls-12" d="m287.38,169.09c-.03-.08-.07-.15-.11-.22-.24-.49-.49-.98-.74-1.47-.02-.03-.04-.07-.06-.11"/><path class="cls-12" d="m285.63,165.69c.28.53.57,1.07.84,1.6"/><path class="cls-12" d="m285.63,165.69c-.14-.26-.27-.51-.41-.76-.35-.65-.71-1.3-1.08-1.95"/><path class="cls-12" d="m283.27,161.46c.3.51.59,1.01.87,1.52"/><path class="cls-12" d="m283.27,161.46c-.08-.14-.16-.27-.24-.41-.21-.36-.42-.72-.64-1.08-.16-.27-.33-.55-.5-.83-.33-.53-.65-1.06-.98-1.59-.07-.1-.14-.21-.2-.31"/><path class="cls-12" d="m125.72,361.39c-69.58-18.01-89.63-50.29-95.45-71.85-.05-.19-.1-.37-.15-.56-6.31-24.01-2.81-51.98,8.81-73.9,10.02-18.9,24.18-37.03,38.97-53.11,1.7-1.84,3.4-3.66,5.11-5.45.8-.84,3.28-5.36,3.76-6.74.47-1.34.96-2.64,1.48-3.92.02-.04.03-.08.05-.12,0-.01,0-.03.02-.04,16.16-39.42,56.81-49.37,81.83-50.25,36.65-1.29,70.35,14.99,95.14,41.78,1.27,1.38,2.52,2.78,3.74,4.21,4.29,5.01,8.19,10.29,11.68,15.8"/><path class="cls-12" d="m270.64,267.17c4.01-2.04,7.42-2.76,10.27-2.51"/></g></g><g><path class="cls-12" d="m275.88,307.04c-14.48,23.11-60.9,74.29-139.3,56.95-78.39-17.34-100.2-51.81-106.31-74.45-.05-.18-.1-.37-.15-.55-6.31-24.01-2.82-51.98,8.81-73.9,11.17-21.07,27.48-41.18,44.08-58.57.8-.84,3.27-5.35,3.76-6.73,14.97-42.83,57.52-53.42,83.38-54.33,36.65-1.29,70.34,14.99,95.14,41.78,1.27,1.37,2.52,2.78,3.75,4.21,25.09,29.27,36.89,68,29.23,105.79-3.13,11.92-6.67,24.81-6.67,24.81,2.12-7.92,4.83-17.15,6.67-24.81,6.35-31.32-.68-63.29-17.56-89.98"/><path class="cls-12" d="m270.64,267.17c18.84-9.57,24.36,9.95,21.2,21.17-1.68,5.99-11.42,24.58-27.22,17.52"/><path class="cls-12" d="m143.66,364.83c.18,2.57.78,10.47.97,13.04"/><path class="cls-12" d="m163.37,367.68c.03,2.18.19,7.45.22,9.62"/><path class="cls-12" d="m107.49,475.45c-12.85-10.78-30.9-15.05-47.21-11.17-3.11-9.8-7.58-19.47-14.94-26.66,27.07-27.61,65.42-45.66,103.97-48.66"/><path class="cls-12" d="m81.6,464.49c-.98,26.06-3.6,52.68-4.58,78.73,11.17,3.15,19.65,12.81,28.53,20.29,19.34,16.31,65.23,21.09,94.05-1.2,10.54-46.12,6.74-85.02,2.48-103.2-6.69-28.54-18.25-55.7-30.84-82.17-10.86.4-21.73.8-32.59,1.21,0,3.24.26,7.99.25,11.22"/><path class="cls-12" d="m188.88,416.49c22.78,14.15,44.43,30.99,46.53,61.73-9.2,3.61-19.46,4.49-29.15,2.48"/><path class="cls-12" d="m234.44,479.31c2.9-2.9,17.69-.42,14.01,12.38,9.76-4.6,11.74,7.71,3.67,11.11-8.06,3.4-14.96-.88-17.08-5.73-2.12-4.85-3.51-14.86-.61-17.76Z"/><path class="cls-12" d="m47.89,439.93c-8.91,9.3-19.7,19.99-28.61,29.28-4.25,4.43-8.71,9.28-9.55,15.36-1.05,7.58,4.82,15.44,12.39,16.57,5.13.77,10.78-1.6,13.23-6.17s.92-11.07-3.64-13.53c8.1-6.85,18.68-15.64,26.78-22.49"/><path class="cls-12" d="m92.18,552.49c-21.52,16.53-39.24,37.97-51.41,62.22,30.22,4.36,59.12,17.46,82.33,37.29,5.73-6.78,14.69-10.69,23.55-10.29s17.43,5.12,22.51,12.39c14.88-12.48,29.6-19.25,48.58-28.91,2.41-21.83-5.7-44.58-21.36-59.98"/><path class="cls-12" d="m173.58,650.53c13.04,9.33,25.76,18.9,35.85,31.36"/><path class="cls-12" d="m202.34,634.07c14.46,11.16,19.61,23.74,23.99,42.34"/><path class="cls-12" d="m209.91,685.72c2.46-1.14,11.73-4.54,17.29-6.88,4.26,3.86,18.12,19.01,14.23,29.22s-16.37,17.34-23.57,11.72c-7.2-5.61,2.13-12.14-7.95-34.06Z"/><path class="cls-12" d="m98.65,635.01c-16.21,14.74-30.28,29.33-44.09,47.31"/><path class="cls-12" d="m58.34,619.11c-11.62,14.4-15.98,36.95-15.33,55.44"/><path class="cls-12" d="m42.17,675.61c3.13,2.7,7.27,4.85,10.4,7.55-.66,6.72-1.13,18.46-2.13,20.4-2.31,4.48-8.52,5.68-13.25,3.96-4.74-1.72-22.68-21.2-28.15-27.16-3.37-3.67-6.98-8.63-4.95-13.18,1.96-4.37,8.15-5.14,12.51-3.17s7.57,5.77,11.31,8.76c3.74,2.99,9.84,4.69,14.25,2.84Z"/><path class="cls-12" d="m81.08,190.43c13.46,1.74,26.93,3.48,40.39,5.21"/><path class="cls-12" d="m154.18,204c33.32,9.43,66.65,18.87,99.97,28.3"/><path class="cls-12" d="m94.99,286.55c5.94,4.75,11.88,9.5,17.81,14.25"/></g></g><g id="device"><g><path class="cls-4" d="m283.19,60.91c3.11,10.71,2.37,22.11,1.6,33.24-1.38,19.99-2.74,42.75-4.12,62.74-3.48-5.51-7.34-10.44-11.64-15.45-3.48-4.07-7.15-7.91-11.01-11.52-14.45-9.48-31.88-9.39-45.68-4.17-12.54,4.73-23.13,11.99-33.81,19.91l-.79-1.08c8.38-46.99,9.68-79.83,7.81-124.88,23.94-5.15,45.9-7.22,74.81,10.61l.12-.16c10.52,8.01,19.06,18.21,22.71,30.76Z"/><path class="cls-9" d="m260.48,30.15l-.12.16c-28.91-17.83-50.87-15.76-74.81-10.61-23.82,5.13-38.61.03-54.43-10.38,36.07-10.17,75.76-6.91,109.67,9.04,6.85,3.22,13.6,7.14,19.69,11.79Z"/><path class="cls-10" d="m185.55,19.7c1.87,45.05.57,77.89-7.81,124.88l.79,1.08c-1.08.79-2.16,1.6-3.24,2.41,1.82-6.35,3.32-15.27-5.45-16.54-8.76-1.28-10.09,6.9-10.92,11.39-.02-4.3-1.64-14.67-9.5-13.12-5.23,1.03-6.41,5.37-6.56,8.78-1.89-43.24-6.19-86.22-12.54-129.04.27-.08.53-.15.8-.22,15.82,10.41,30.61,15.51,54.43,10.38Z"/></g><g><path class="cls-11" d="m185.55,19.7c1.88,45.05.58,77.88-7.81,124.88"/><path class="cls-12" d="m280.68,156.89c1.38-19.99,2.74-42.75,4.12-62.74.77-11.13,1.51-22.53-1.6-33.24-5.76-19.83-23.72-33.76-42.4-42.55C206.64,2.29,166.6-.9,130.33,9.54c6.54,44.1,10.91,88.37,12.71,132.92-.19-2.11-1.46-11.11,6.39-12.66,7.85-1.55,9.48,8.82,9.5,13.12.83-4.49,2.16-12.67,10.93-11.4,8.77,1.28,7.27,10.19,5.44,16.55,11.81-8.84,23.25-17.11,37.05-22.33,13.8-5.22,31.23-5.3,45.69,4.17,3.85,3.61,7.53,7.45,11.01,11.52,4.29,5.01,8.15,9.95,11.64,15.46Z"/><path class="cls-12" d="m130.88,9.15c15.9,10.53,30.73,15.71,54.67,10.55,23.94-5.16,45.9-7.22,74.81,10.61"/></g></g></svg>
